<svg id="Layer_1" data-name="Layer 1" xmlns="http://www.w3.org/2000/svg" viewBox="0 0 127.8 89.71"><defs><style>.cls-1{fill:#787779;}.cls-2{fill:#fff;}</style></defs><g id="EN"><path class="cls-1" d="M38.29,103.58h-2.7v3.62h3.07v1.57H33.78V97.37h4.68v1.57H35.59v3.13h2.7Z" transform="translate(-33.78 -22.31)"/><path class="cls-1" d="M46,106.37c0,.89,0,1.71.07,2.4H44.49l-.1-.86h0a2.24,2.24,0,0,1-1.84,1c-1.51,0-2.12-1.14-2.12-3.29v-5.09h1.81v4.88c0,1.18.2,2,.95,2a1,1,0,0,0,.93-.81,2.13,2.13,0,0,0,.1-.71v-5.35H46Z" transform="translate(-33.78 -22.31)"/><path class="cls-1" d="M48.34,102.85c0-.76,0-1.62-.06-2.32h1.57l.1,1.24h0a2,2,0,0,1,1.68-1.37,3.66,3.66,0,0,1,.39,0v1.8a2.36,2.36,0,0,0-.39,0,1.62,1.62,0,0,0-1.46,1.42,5,5,0,0,0-.07.78v4.36H48.34Z" transform="translate(-33.78 -22.31)"/><path class="cls-1" d="M56.31,108.91c-1.74,0-2.94-1.46-2.94-4.23,0-3,1.47-4.28,3-4.28,1.72,0,2.91,1.5,2.91,4.23,0,3.33-1.73,4.28-3,4.28Zm.07-1.39c.89,0,1.1-1.62,1.1-2.88s-.21-2.85-1.14-2.85-1.16,1.65-1.16,2.85c0,1.39.23,2.88,1.18,2.88Z" transform="translate(-33.78 -22.31)"/><path class="cls-1" d="M61.28,103.12c0-1.11,0-1.89-.06-2.59h1.57l.1,1h0a1.87,1.87,0,0,1,1.73-1.13c1.64,0,2.48,1.76,2.48,4.23,0,3-1.28,4.28-2.62,4.28a1.57,1.57,0,0,1-1.4-.87h0v4h-1.8Zm1.8,2.64a2.78,2.78,0,0,0,.08.69c.22.8.64,1,1,1,.91,0,1.21-1.31,1.21-2.76,0-1.64-.38-2.74-1.21-2.74-.46,0-.86.51-1,1.07a2.29,2.29,0,0,0-.06.61Z" transform="translate(-33.78 -22.31)"/><path class="cls-1" d="M70.62,105.14c0,1.84.86,2.34,1.83,2.34a3.88,3.88,0,0,0,1.47-.28l.27,1.28a5.38,5.38,0,0,1-2.07.39c-2.13,0-3.26-1.54-3.26-4.09,0-2.72,1.3-4.38,3.06-4.38s2.61,1.57,2.61,3.77a7.08,7.08,0,0,1,0,1Zm2.23-1.29c0-1.32-.42-2.1-1.06-2.1s-1.14,1.14-1.17,2.1Z" transform="translate(-33.78 -22.31)"/><path class="cls-1" d="M81.51,106.89a13.77,13.77,0,0,0,.1,1.88H80l-.11-.83h0a2,2,0,0,1-1.74,1A2.19,2.19,0,0,1,76,106.47c0-2.11,1.79-3,3.65-3v-.22c0-.86-.34-1.45-1.23-1.45a2.77,2.77,0,0,0-1.54.46L76.57,101a4.65,4.65,0,0,1,2.27-.59c2.13,0,2.67,1.45,2.67,3.21Zm-1.78-2.25c-.71,0-2,.21-2,1.64,0,.94.49,1.27.9,1.27a1.07,1.07,0,0,0,1-.94,1.45,1.45,0,0,0,0-.43Z" transform="translate(-33.78 -22.31)"/><path class="cls-1" d="M83.81,102.85c0-.93,0-1.59-.06-2.32h1.57l.08,1h0a2.19,2.19,0,0,1,1.94-1.1c1.39,0,2.11,1.06,2.11,3v5.4h-1.8v-5.22c0-.83-.17-1.63-1-1.63-.44,0-.84.34-1,1a2.89,2.89,0,0,0-.09.75v5.09H83.81Z" transform="translate(-33.78 -22.31)"/><path class="cls-1" d="M95,97.54a9.84,9.84,0,0,1,2.11-.22,4,4,0,0,1,2.86.86,3.31,3.31,0,0,1,.91,2.44,3.45,3.45,0,0,1-3.58,3.72,4.18,4.18,0,0,1-.51,0v4.45H95Zm1.79,5.3a1.89,1.89,0,0,0,.44,0c1.18,0,1.84-.81,1.84-2.12,0-1.06-.44-2-1.66-2a1.77,1.77,0,0,0-.62.09Z" transform="translate(-33.78 -22.31)"/><path class="cls-1" d="M107.67,106.89a13.77,13.77,0,0,0,.1,1.88h-1.62l-.1-.83h0a2.07,2.07,0,0,1-1.75,1,2.19,2.19,0,0,1-2.08-2.44c0-2.11,1.8-3,3.66-3v-.22c0-.86-.34-1.45-1.24-1.45a2.79,2.79,0,0,0-1.54.46l-.33-1.24a4.57,4.57,0,0,1,2.26-.59c2.13,0,2.67,1.45,2.67,3.21Zm-1.77-2.25c-.72,0-2,.21-2,1.64,0,.94.49,1.27.89,1.27a1.09,1.09,0,0,0,1-.94,1.88,1.88,0,0,0,.05-.43Z" transform="translate(-33.78 -22.31)"/><path class="cls-1" d="M110,102.85c0-.76,0-1.62-.07-2.32h1.57l.11,1.24h0a1.94,1.94,0,0,1,1.67-1.37,3.66,3.66,0,0,1,.39,0v1.8a2.36,2.36,0,0,0-.39,0,1.63,1.63,0,0,0-1.46,1.42,5.16,5.16,0,0,0-.06.78v4.36H110Z" transform="translate(-33.78 -22.31)"/><path class="cls-1" d="M115.32,97.07h1.81v11.7h-1.81Z" transform="translate(-33.78 -22.31)"/><path class="cls-1" d="M120.34,99.43a1,1,0,0,1,0-2.09,1,1,0,0,1,0,2.09Zm-.86,9.34v-8.24h1.81v8.24Z" transform="translate(-33.78 -22.31)"/><path class="cls-1" d="M128.59,106.89a12.28,12.28,0,0,0,.11,1.88h-1.63l-.1-.83h0a2.05,2.05,0,0,1-1.74,1,2.2,2.2,0,0,1-2.09-2.44c0-2.11,1.8-3,3.66-3v-.22c0-.86-.34-1.45-1.24-1.45a2.79,2.79,0,0,0-1.54.46l-.33-1.24a4.57,4.57,0,0,1,2.26-.59c2.13,0,2.67,1.45,2.67,3.21Zm-1.77-2.25c-.71,0-2,.21-2,1.64,0,.94.49,1.27.9,1.27a1.09,1.09,0,0,0,1-.94,1.88,1.88,0,0,0,0-.43Z" transform="translate(-33.78 -22.31)"/><path class="cls-1" d="M130.9,102.85c0-.93,0-1.59-.07-2.32h1.57l.09,1h0a2.26,2.26,0,0,1,1.93-1.12,1.78,1.78,0,0,1,1.76,1.18h0a2.86,2.86,0,0,1,.81-.88,2.24,2.24,0,0,1,1.15-.3c1.32,0,2.06,1,2.06,3v5.33h-1.79v-5c0-1-.13-1.88-.93-1.88-.47,0-.84.36-1,1a2.12,2.12,0,0,0-.07.66v5.24h-1.8v-5.28c0-.72-.1-1.59-.91-1.59-.44,0-.86.34-1,1a3.34,3.34,0,0,0-.07.66v5.21H130.9Z" transform="translate(-33.78 -22.31)"/><path class="cls-1" d="M144,105.14c0,1.84.86,2.34,1.82,2.34a3.89,3.89,0,0,0,1.48-.28l.26,1.28a5.29,5.29,0,0,1-2.06.39c-2.13,0-3.26-1.54-3.26-4.09,0-2.72,1.3-4.38,3.06-4.38s2.6,1.57,2.6,3.77a5.75,5.75,0,0,1-.05,1Zm2.23-1.29c0-1.32-.42-2.1-1.07-2.1s-1.13,1.14-1.16,2.1Z" transform="translate(-33.78 -22.31)"/><path class="cls-1" d="M149.89,102.85c0-.93,0-1.59-.07-2.32h1.57l.09,1h0a2.21,2.21,0,0,1,2-1.1c1.38,0,2.11,1.06,2.11,3v5.4h-1.81v-5.22c0-.83-.17-1.63-1-1.63-.45,0-.85.34-1,1a3,3,0,0,0-.08.75v5.09h-1.81Z" transform="translate(-33.78 -22.31)"/><path class="cls-1" d="M160,98.49v2h1.59v1.31H160v4.27c0,1,.39,1.27.85,1.27a3.43,3.43,0,0,0,.56,0l0,1.41a4.42,4.42,0,0,1-1.18.13,2,2,0,0,1-1.46-.51,2.88,2.88,0,0,1-.61-2.23v-4.29h-1v-1.31h1V99.11Z" transform="translate(-33.78 -22.31)"/></g><g id="mute"><g id="flag"><rect class="cls-2" x="71.09" y="29.81" width="56.7" height="37.83"/><rect class="cls-1" x="71.84" y="30.56" width="55.21" height="36.34"/><polygon class="cls-2" points="99.41 33.92 99.95 35.6 101.71 35.59 100.28 36.62 100.83 38.3 99.41 37.26 98 38.3 98.55 36.62 97.11 35.59 98.87 35.6 99.41 33.92"/><polygon class="cls-2" points="99.41 59.16 99.95 60.83 101.71 60.82 100.28 61.85 100.83 63.53 99.41 62.49 98 63.53 98.55 61.85 97.11 60.82 98.87 60.83 99.41 59.16"/><polygon class="cls-2" points="93.14 35.6 93.67 37.28 95.44 37.27 94.01 38.3 94.56 39.97 93.14 38.93 91.72 39.97 92.27 38.3 90.84 37.27 92.6 37.28 93.14 35.6"/><polygon class="cls-2" points="88.52 40.23 89.06 41.91 90.82 41.9 89.39 42.93 89.94 44.6 88.52 43.56 87.1 44.6 87.65 42.93 86.22 41.9 87.98 41.91 88.52 40.23"/><polygon class="cls-2" points="86.81 46.53 87.35 48.2 89.11 48.19 87.68 49.23 88.23 50.9 86.81 49.85 85.39 50.9 85.95 49.23 84.51 48.19 86.28 48.2 86.81 46.53"/><polygon class="cls-2" points="88.5 52.82 89.04 54.5 90.8 54.49 89.37 55.52 89.92 57.19 88.5 56.15 87.08 57.19 87.63 55.52 86.2 54.49 87.96 54.5 88.5 52.82"/><polygon class="cls-2" points="93.14 57.45 93.67 59.13 95.44 59.12 94.01 60.15 94.56 61.82 93.14 60.78 91.72 61.82 92.27 60.15 90.84 59.12 92.6 59.13 93.14 57.45"/><polygon class="cls-2" points="105.7 35.6 105.16 37.28 103.39 37.27 104.83 38.3 104.27 39.97 105.7 38.93 107.11 39.97 106.56 38.3 107.99 37.27 106.24 37.28 105.7 35.6"/><polygon class="cls-2" points="110.32 40.23 109.78 41.91 108.02 41.9 109.45 42.93 108.89 44.6 110.32 43.56 111.74 44.6 111.19 42.93 112.61 41.9 110.85 41.91 110.32 40.23"/><polygon class="cls-2" points="112.02 46.53 111.48 48.2 109.72 48.19 111.15 49.23 110.6 50.9 112.02 49.85 113.44 50.9 112.89 49.23 114.32 48.19 112.56 48.2 112.02 46.53"/><polygon class="cls-2" points="110.33 52.82 109.8 54.5 108.03 54.49 109.47 55.52 108.91 57.19 110.33 56.15 111.76 57.19 111.2 55.52 112.63 54.49 110.87 54.5 110.33 52.82"/><polygon class="cls-2" points="105.7 57.45 105.16 59.13 103.39 59.12 104.83 60.15 104.27 61.82 105.7 60.78 107.11 61.82 106.56 60.15 107.99 59.12 106.24 59.13 105.7 57.45"/></g><g id="hc"><path class="cls-1" d="M113.93,44.58V41.45c-1.14-1-5.69-2.92-8.46-3.54v2.21A21.78,21.78,0,0,1,113.93,44.58Z" transform="translate(-33.78 -22.31)"/><path class="cls-1" d="M116.23,49.25h2.69c.09-4-3.12-6.39-3.58-6.75v3.76A5.18,5.18,0,0,1,116.23,49.25Z" transform="translate(-33.78 -22.31)"/><path class="cls-1" d="M122.93,41.3v3.4a10.42,10.42,0,0,1,2.81,4.56h2.86A13.9,13.9,0,0,0,122.93,41.3Z" transform="translate(-33.78 -22.31)"/><path class="cls-1" d="M121.2,43.17V40.11a42.54,42.54,0,0,0-13-5.09v2.19A37.13,37.13,0,0,1,121.2,43.17Z" transform="translate(-33.78 -22.31)"/><path class="cls-1" d="M128.53,41.31v-3c-3.14-2-9.6-4.74-17.23-6.35v2.19A53.1,53.1,0,0,1,128.53,41.31Z" transform="translate(-33.78 -22.31)"/><path class="cls-1" d="M130.56,39.57v3.25a18.1,18.1,0,0,1,5.23,6.44h3C137.77,45.83,133.9,41.68,130.56,39.57Z" transform="translate(-33.78 -22.31)"/><path class="cls-1" d="M136.71,39.43v-3a72.89,72.89,0,0,0-22.16-7.93v2.18C122.63,32.27,132.24,36.26,136.71,39.43Z" transform="translate(-33.78 -22.31)"/><path class="cls-1" d="M146.41,49.26h3.18c-2.29-5.46-8-9.83-10.66-11.5V41A25.09,25.09,0,0,1,146.41,49.26Z" transform="translate(-33.78 -22.31)"/><path class="cls-1" d="M144.75,37.51V34.38c-4.86-3-14.7-7.43-26.68-9.74v2.28C127.18,28.81,138.81,33.33,144.75,37.51Z" transform="translate(-33.78 -22.31)"/><path class="cls-1" d="M156.71,49.26h3.46a38.2,38.2,0,0,0-13-13.37v3.28A33.72,33.72,0,0,1,156.71,49.26Z" transform="translate(-33.78 -22.31)"/><path class="cls-1" d="M103.2,39.5V37.43a47.41,47.41,0,0,0-11-.64v1.62A42.85,42.85,0,0,1,103.2,39.5Z" transform="translate(-33.78 -22.31)"/><path class="cls-1" d="M89.75,38.55V37A24.47,24.47,0,0,0,77.69,41.3v1.33C81,40,85.52,38.89,89.75,38.55Z" transform="translate(-33.78 -22.31)"/><path class="cls-1" d="M76.36,44V42.51c-5.33,6,1.33,11,2,11.47v-2C74.68,49.12,75.11,45.68,76.36,44Z" transform="translate(-33.78 -22.31)"/><path class="cls-1" d="M80.42,53.2v2.19a37.88,37.88,0,0,0,12.44,4.2l0-3A31.37,31.37,0,0,1,80.42,53.2Z" transform="translate(-33.78 -22.31)"/><path class="cls-1" d="M94.58,56.71V59.8c3,.26,5.89.33,7.45.33V56.65A70,70,0,0,1,94.58,56.71Z" transform="translate(-33.78 -22.31)"/><path class="cls-1" d="M106,36.68V34.57a65.43,65.43,0,0,0-15.24-.92v1.64A63.57,63.57,0,0,1,106,36.68Z" transform="translate(-33.78 -22.31)"/><path class="cls-1" d="M90.9,65.56V62.24c-5.54-.49-14.07-2.42-19.36-6.31v2.21C77.34,62.52,86.53,65,90.9,65.56Z" transform="translate(-33.78 -22.31)"/><path class="cls-1" d="M69.53,56.48V54.29c-4.7-4.46-3.78-9-.75-11.93V41C63,46.28,65.09,52.69,69.53,56.48Z" transform="translate(-33.78 -22.31)"/><path class="cls-1" d="M92.85,62.42v3.43a63.31,63.31,0,0,0,9.17.63V62.69C98.93,62.71,94.22,62.55,92.85,62.42Z" transform="translate(-33.78 -22.31)"/><path class="cls-1" d="M70.35,39.7V41c5.06-3.76,12.63-5.28,18-5.56V33.85C81.71,34.28,74.14,36.81,70.35,39.7Z" transform="translate(-33.78 -22.31)"/><path class="cls-1" d="M62.13,58.49v2.37C69.38,67.39,81.3,71,88.51,72.19V68.5C81.87,67.76,69.88,65.18,62.13,58.49Z" transform="translate(-33.78 -22.31)"/><path class="cls-1" d="M109,33.57V31.49A81.34,81.34,0,0,0,88.67,30.4v1.65A83.46,83.46,0,0,1,109,33.57Z" transform="translate(-33.78 -22.31)"/><path class="cls-1" d="M90.64,68.74v3.82a84.2,84.2,0,0,0,11.38,1V69.35C100.3,69.41,92.78,69,90.64,68.74Z" transform="translate(-33.78 -22.31)"/><path class="cls-1" d="M86.24,32.2V30.6c-5.63.49-15.71,2.49-22.39,7v1.29C70.35,34.49,80.42,32.52,86.24,32.2Z" transform="translate(-33.78 -22.31)"/><path class="cls-1" d="M62,40.23V38.91C59,41.22,51.46,49,60.14,58.83V56.45C58.21,54.29,53.55,47.31,62,40.23Z" transform="translate(-33.78 -22.31)"/><path class="cls-1" d="M112.28,30.16V28A102.24,102.24,0,0,0,86.87,26.8v1.65A104.06,104.06,0,0,1,112.28,30.16Z" transform="translate(-33.78 -22.31)"/><path class="cls-1" d="M88.28,75.29v4A94.87,94.87,0,0,0,102,80.82V76.23A111.35,111.35,0,0,1,88.28,75.29Z" transform="translate(-33.78 -22.31)"/><path class="cls-1" d="M85.94,79V75c-11.89-1.69-25-6-33.12-14v2.52C62.44,73.17,78.4,77.59,85.94,79Z" transform="translate(-33.78 -22.31)"/><path class="cls-1" d="M57.28,35.33V36.6c8-5.06,18.84-7.24,27.16-8V27C76.44,27.71,64.73,30.43,57.28,35.33Z" transform="translate(-33.78 -22.31)"/><path class="cls-1" d="M50.82,61.14v-2.6C47.7,54.3,44.65,45.92,55.4,37.91V36.6C43.32,45.24,46.34,55.81,50.82,61.14Z" transform="translate(-33.78 -22.31)"/><path class="cls-1" d="M42.47,62.77v2.82c9.13,11.84,28,18.81,39.69,21.28V82.54C69.85,80.46,51.15,74.43,42.47,62.77Z" transform="translate(-33.78 -22.31)"/><path class="cls-1" d="M115.77,26.43V24.21a118.17,118.17,0,0,0-31.25-1.43v1.7A120.61,120.61,0,0,1,115.77,26.43Z" transform="translate(-33.78 -22.31)"/><path class="cls-1" d="M82.09,24.69V23c-10.42,1.06-23.36,4.67-30.92,9.61V34C60.67,28.13,73.28,25.52,82.09,24.69Z" transform="translate(-33.78 -22.31)"/><path class="cls-1" d="M84.7,83v4.43A117.79,117.79,0,0,0,102,89.56V84.48A156.66,156.66,0,0,1,84.7,83Z" transform="translate(-33.78 -22.31)"/><path class="cls-1" d="M49.14,35.29V34c-3.06,2-17.54,12.84-8.65,28.53V59.32C34.93,47.75,43.41,39.36,49.14,35.29Z" transform="translate(-33.78 -22.31)"/></g></g></svg>